# xmcd CD database file
#
# Track frame offsets:
#	150
#	23653
#	38995
#	56723
#	75481
#	90320
#	107211
#	124366
#	141735
#	156830
#	173036
#	191917
#
# Disc length: 2738 seconds
#
# Revision: 0
# Processed by: cddbd v1.5.1PL0 Copyright (c) Steve Scherf et al.
# Submitted via: CDex 1.50
#
DISCID=a40ab00c
DTITLE=Youth blood - Feng Shui Amor
DYEAR=1900
DGENRE=New Age
TTITLE0=Proximity
TTITLE1=The Eve of Love
TTITLE2=Fragance inthe wind
TTITLE3=Love room
TTITLE4=Ecstasy
TTITLE5=Wet skin
TTITLE6=Cascade of love
TTITLE7=Exciting breeze
TTITLE8=Amazing caresses
TTITLE9=Seduction
TTITLE10=Nearest way 
TTITLE11=Daintily
EXTD=
EXTT0=
EXTT1=
EXTT2=
EXTT3=
EXTT4=
EXTT5=
EXTT6=
EXTT7=
EXTT8=
EXTT9=
EXTT10=
EXTT11=
PLAYORDER=
